<svg height="320" viewBox="0 0 1252 320" width="1252" xmlns="http://www.w3.org/2000/svg"><path d="m120.8168 69.7856c.1568.512 1.6264 4.8656 7.5368 22.3288 1.8512 5.4688 3.4992 10.3544 3.6624 10.8568.1632.5032 1.2712 3.7944 2.4624 7.3144 3.0776 9.096 12.1976 36.0648 16.9272 50.0576 2.2096 6.5368 10.216 29.8072 17.792 51.712l13.7736 39.8272 19.46.0032h19.46l1.1872-3.4856c.6528-1.9168 3.1432-9.2456 5.5344-16.2856s5.7664-16.9656 7.5016-22.0576c1.7344-5.0912 6.1152-17.972 9.7344-28.6232 3.6192-10.652 6.6176-19.3296 6.6632-19.284.0984.0984.4192 5.0976 1.6536 25.736.508 8.4856 1.4352 23.9656 2.0608 34.4.6264 10.4344 1.2464 20.9256 1.3784 23.3144.1328 2.3888.2944 4.78.3608 5.3144l.1192.9712h18.5072 18.5064l-.1208-1.4288c-.0664-.7856-.2248-3.28-.352-5.5424-.1264-2.2632-.5376-9.36-.9128-15.7712-.5944-10.1504-2.2496-38.556-4.568-78.4-.3736-6.412-.7304-12.4288-.7944-13.372-.064-.9424-.224-3.668-.3552-6.0568-.2696-4.8832-1.288-22.2776-1.4792-25.2576-.0688-1.068-.3792-6.4168-.6904-11.8856-.3104-5.468-.6664-11.5368-.7896-13.4856s-.2912-4.88-.3728-6.5144c-.0824-1.6344-.216-3.3824-.2984-3.8856l-.1488-.9144-18.0512-.0696c-9.928-.0384-18.776-.0056-19.6632.0728l-1.612.1416-.7048 2.0992c-.388 1.1544-2.0632 6.0592-3.7232 10.8992s-3.8744 11.32-4.9192 14.4c-1.8152 5.3488-3.9576 11.632-6.9352 20.3424-.752 2.2-2.8584 8.372-4.6808 13.7144-3.2672 9.5816-8.764 25.6816-11.3544 33.2576-2.5192 7.3664-8.276 24.2352-9.192 26.9336-.5056 1.4872-.9992 2.6184-1.0968 2.5136-.0984-.1048-9.9288-28.0648-21.8448-62.1328-11.9168-34.0688-21.776-62.0208-21.9096-62.1152s-8.708-.1648-19.0536-.1574197l-18.8112.0158197zm-1.7768 72.5-.0824 48.2288-.5008 2.1712c-2.636 11.424-10.3544 20.0752-20.9712 23.504-18.348 5.9264-37.444-5.6392-40.6624-24.6272-.2008-1.184-.4032-2.1896-.4496-2.236-.0784-.0792-28.296-.5072-34.2944-.52l-2.7208-.0064.136 2.6856c1.9608 38.7704 39.2432 68.4568 78.58 62.5704 27.4704-4.1112 50.4624-25.5552 56.4336-52.636l.468-2.1224-1.012-2.9056c-4.7184-13.5384-9.1128-26.408-16.3688-47.9352-7.5152-22.2976-17.6864-52.3024-18.1296-53.4856-.3072-.8184-.3512 4.1368-.4256 47.3144" fill="#1a202e" fill-rule="evenodd" transform="translate(466)"/></svg>