<svg height="630" viewBox="0 0 1200 630" width="1200" xmlns="http://www.w3.org/2000/svg"><g fill="none" fill-rule="evenodd"><path d="m0 0h1200v630h-1200z" fill="#fff"/><g fill-rule="nonzero"><g fill="#000" transform="matrix(.70710678 .70710678 -.70710678 .70710678 775.646447 146.385516)"><path d="m41.7150974 92.0520382c-3.243 0-5.875-2.576-5.875-5.75 0-15.847-13.17175-28.75-29.37499998-28.75-3.243 0-5.875-2.576-5.875-5.75s2.632-5.75 5.875-5.75c22.67749998 0 41.12499998 18.055 41.12499998 40.25 0 3.174-2.632 5.75-5.875 5.75z"/><path d="m65.2144661 91.8847763c-3.174 0-5.75-2.576-5.75-5.75 0-28.5315-23.2185-51.75-51.75000001-51.75-3.174 0-5.75-2.576-5.75-5.75s2.576-5.75 5.75-5.75c34.87950001 0 63.25000001 28.3705 63.25000001 63.25 0 3.174-2.576 5.75-5.75 5.75z"/><path d="m87.3210678 92.0710678c-3.174 0-5.75-2.576-5.75-5.75 0-41.216-33.534-74.75-74.74999999-74.75-3.174 0-5.75-2.57599999-5.75-5.74999999s2.576-5.75 5.75-5.75c23.03449999 0 44.70049999 8.97 60.98449999 25.26549999 16.284 16.2955 25.2655 37.95 25.2655 60.9845 0 3.174-2.576 5.75-5.75 5.75z"/></g><g fill="#000" transform="matrix(-.70710678 .70710678 .70710678 .70710678 425.353553 146.385516)"><path d="m41.7150974 92.0520382c-3.243 0-5.875-2.576-5.875-5.75 0-15.847-13.17175-28.75-29.37499998-28.75-3.243 0-5.875-2.576-5.875-5.75s2.632-5.75 5.875-5.75c22.67749998 0 41.12499998 18.055 41.12499998 40.25 0 3.174-2.632 5.75-5.875 5.75z"/><path d="m65.2144661 91.8847763c-3.174 0-5.75-2.576-5.75-5.75 0-28.5315-23.2185-51.75-51.75000001-51.75-3.174 0-5.75-2.576-5.75-5.75s2.576-5.75 5.75-5.75c34.87950001 0 63.25000001 28.3705 63.25000001 63.25 0 3.174-2.576 5.75-5.75 5.75z"/><path d="m87.3210678 92.0710678c-3.174 0-5.75-2.576-5.75-5.75 0-41.216-33.534-74.75-74.74999999-74.75-3.174 0-5.75-2.57599999-5.75-5.74999999s2.576-5.75 5.75-5.75c23.03449999 0 44.70049999 8.97 60.98449999 25.26549999 16.284 16.2955 25.2655 37.95 25.2655 60.9845 0 3.174-2.576 5.75-5.75 5.75z"/></g><path d="m202.9619 16.0414827c10.3003 10.3001283 15.647551 23.2026633 16.0381 38.7076049v109.5018254c-.390549 15.501291-5.7378 28.407477-16.0381 38.707605-10.300299 10.300128-23.2067 15.64729-38.7119 16.041482h-109.5c-15.5052-.394192-28.40795-5.741354-38.70825-16.041482-10.30030001-10.300128-15.64755-23.206314-16.04175-38.707605v-109.5018254c.3942-15.5049416 5.74144999-28.4074766 16.04175-38.7076049 10.3003-10.30012838 23.20305-15.64728927 38.70825-16.0414827h109.5c15.5052.39419343 28.411601 5.74135432 38.7119 16.0414827zm-15.103701 88.1131813c-3.441949-3.423642-5.230449-7.7196206-5.372799-12.887935v-36.5176414c-.1095-5.1683139-1.883401-9.4715921-5.321701-12.9098348-3.438299-3.4418927-7.7453-5.2121132-12.913699-5.3216114h-18.231751v91.2156296l-73.0328491-91.2156296h-18.2353999c-5.1684001.1094982-9.47175 1.8797187-12.91005 5.3216114-3.4419501 3.4382427-5.2122 7.7415209-5.3217 12.9098348v36.5176414c-.14235 5.1683144-1.9308501 9.464293-5.3728 12.887935-3.4383 3.419993-7.7416501 5.201163-12.91005 5.343511 5.1683999.145998 9.47175 1.927168 12.91005 5.347161 3.4419499 3.423643 5.23045 7.719621 5.3728 12.887935v36.517642c.1095 5.164663 1.8797499 9.471592 5.3217 12.909834 3.4383 3.438243 7.7416499 5.212114 12.91005 5.321612h18.2353999v-91.21563l73.0328491 91.21563h18.231751c5.168399-.109498 9.4754-1.883369 12.913699-5.321612 3.4383-3.438242 5.212201-7.745171 5.321701-12.909834v-36.517642c.14235-5.168314 1.93085-9.464292 5.372799-12.887935 3.438301-3.419993 7.74165-5.201163 12.910051-5.347161-5.168401-.142348-9.47175-1.923518-12.910051-5.343511z" fill="#3c5afd" transform="translate(491 103)"/><path d="m413.630859 451.876953h-6.630859v-46.655273h6.391602l22.695312 34.658203h.205078v-34.658203h6.665039v46.655273h-6.391601l-22.729492-34.726562h-.205079zm60.878581-4.443359c-1.674805 2.802734-4.887695 5.024414-10.219726 5.024414-6.972657 0-11.757813-4.272461-11.757813-10.9375 0-6.357422 4.40918-10.390625 12.680664-10.424805h9.262695v-3.520508c0-4.375-2.529296-6.767578-7.041015-6.767578-4.306641 0-6.767578 2.22168-7.075196 5.571289h-6.49414c.341797-6.186523 4.511719-11.108398 13.774414-11.108398 7.861328 0 13.706055 4.067383 13.706055 11.928711v24.677734h-6.59668v-4.443359zm-8.203125-.410156c4.648438 0 8.168945-2.905274 8.168945-7.075196v-4.067383h-8.305664c-4.614257 0-6.665039 2.1875-6.665039 5.297852 0 3.964844 3.28125 5.844727 6.801758 5.844727zm28.271159-31.171876v-8.886718h6.801758v8.886718h7.075195v5.605469h-7.075195v19.960938c0 4.101562 1.469726 5.195312 5.673828 5.195312.615234 0 1.162109-.034179 1.640625-.068359v5.366211c-.581055.102539-1.948242.239258-3.349609.239258-8.681641 0-10.834961-3.212891-10.834961-10.390625v-20.302735h-4.921875v-5.605469zm23.998698 36.025391v-36.025391h6.904297v36.025391zm-.751953-44.80957c0-2.324219 1.879883-4.067383 4.204101-4.067383 2.324219 0 4.204102 1.743164 4.204102 4.067383s-1.879883 4.067383-4.204102 4.067383c-2.324218 0-4.204101-1.743164-4.204101-4.067383zm27.177409 44.80957-12.373047-36.025391h7.314453l8.75 28.334961h.239258l9.433593-28.334961h7.006836l-12.783203 36.025391zm40.541666.615235c-9.536133 0-15.517578-6.494141-15.517578-16.987305v-3.793945c0-9.87793 5.742188-16.47461 15.244141-16.47461 9.536133 0 15.175781 6.767578 15.175781 16.816406v3.417969h-23.549805v.751953c0 6.391602 3.34961 10.698242 8.78418 10.698242 3.964844 0 6.630859-1.982421 7.65625-5.195312h6.665039c-1.196289 5.878906-5.913086 10.766602-14.458008 10.766602zm-8.647461-22.080079h16.748047v-.102539c0-5.366211-3.315429-9.570312-8.339844-9.570312-5.126953 0-8.408203 4.238281-8.408203 9.570312zm30.185222 8.647461h6.938476c.410157 4.238282 4.067383 7.827149 10.903321 7.827149 6.220703 0 10.048828-2.973633 10.048828-7.65625 0-3.691407-2.392578-5.708008-7.485352-6.972657l-7.861328-1.982421c-5.810547-1.435547-11.210938-4.990235-11.210938-12.441407 0-8.852539 7.792969-13.671875 16.577149-13.671875 8.613281 0 16.337891 4.614258 16.508789 13.466797h-6.801758c-.375976-4.169922-3.588867-7.553711-9.80957-7.553711-5.53711 0-9.399414 2.631836-9.399414 7.246094 0 3.144531 2.11914 5.43457 6.52832 6.494141l7.792969 1.982422c7.075195 1.777343 12.270508 5.092773 12.270508 12.851562 0 9.160156-7.553711 14.18457-17.773438 14.18457-12.714844 0-17.055664-7.553711-17.226562-13.774414zm42.694987-3.691406v-3.349609c0-9.809571 5.708007-16.782227 15.3125-16.782227 8.613281 0 13.808593 5.605469 14.116211 11.586914h-6.63086c-.683594-3.041992-3.383789-5.742187-7.075195-5.742187-5.537109 0-8.78418 4.204101-8.78418 11.108398v3.212891c0 6.835937 3.417969 11.210937 8.81836 11.210937 4.30664 0 6.699218-2.392578 7.280273-5.229492h6.59668c-1.025391 6.801758-5.981446 11.108399-14.321289 11.108399-9.707032 0-15.3125-7.211915-15.3125-17.124024zm38.593424 16.508789v-36.025391h6.904297v4.580079h.239258c.957031-2.1875 3.657226-5.126953 8.71582-5.126953.888672 0 1.708985.068359 2.426758.170898v6.186523c-.649414-.136718-1.914063-.205078-3.076172-.205078-6.220703 0-8.237305 3.828125-8.237305 8.681641v21.738281zm27.177409 0v-36.025391h6.904297v36.025391zm-.751953-44.80957c0-2.324219 1.879883-4.067383 4.204101-4.067383 2.324219 0 4.204102 1.743164 4.204102 4.067383s-1.879883 4.067383-4.204102 4.067383c-2.324218 0-4.204101-1.743164-4.204101-4.067383zm36.508463 45.356445c-4.648437 0-8.203125-2.22168-10.151367-5.46875h-.239258v17.294922h-6.904296v-48.398438h6.699218v5.229493h.239258c2.016602-3.417969 5.708008-5.776367 10.561524-5.776367 8.066406 0 13.945312 6.186523 13.945312 16.918945v3.24707c0 10.629883-5.776367 16.953125-14.150391 16.953125zm-1.298828-5.810547c5.058594 0 8.476563-4.033203 8.476563-11.586914v-2.563476c0-7.211914-3.212891-11.416016-8.613281-11.416016-5.57129 0-9.023438 4.511719-9.023438 11.381836v2.597656c0 7.075195 3.486328 11.586914 9.160156 11.586914zm27.587565-30.761719v-8.886718h6.801758v8.886718h7.075196v5.605469h-7.075196v19.960938c0 4.101562 1.469727 5.195312 5.673828 5.195312.615235 0 1.16211-.034179 1.640625-.068359v5.366211c-.581054.102539-1.948242.239258-3.349609.239258-8.681641 0-10.834961-3.212891-10.834961-10.390625v-20.302735h-4.921875v-5.605469z" fill="#000"/><path d="m525.867188 526.099609h-4.306641l-14.560547-39.960937h4.951172l11.748047 34.160156h.117187l11.71875-34.160156h4.951172zm21.566406 0v-30.673828h4.30664v30.673828zm-.761719-38.144531c0-1.611328 1.318359-2.929687 2.900391-2.929687 1.640625 0 2.958984 1.318359 2.958984 2.929687 0 1.640625-1.318359 2.958984-2.958984 2.958984-1.582032 0-2.900391-1.318359-2.900391-2.958984zm29.271484 38.642578c-4.599609 0-7.558593-2.167968-9.316406-5.273437h-.117187v4.77539h-4.072266v-42.099609h4.277344v15.791016h.117187c1.494141-2.519532 4.980469-4.863282 9.169922-4.863282 7.148438 0 12.1875 5.097657 12.1875 14.150391v3.339844c0 8.818359-4.951172 14.179687-12.246094 14.179687zm-.292968-3.83789c4.804687 0 8.232421-3.75 8.232421-10.634766v-2.753906c0-6.855469-3.398437-10.605469-8.232421-10.605469-5.625 0-8.994141 3.867187-8.994141 10.605469v2.695312c0 6.796875 3.369141 10.69336 8.994141 10.69336zm21.595703 3.339843v-30.673828h4.30664v3.955078h.117188c.9375-1.992187 3.222656-4.423828 7.763672-4.423828.615234 0 1.259765.058594 1.845703.117188v4.013672c-.498047-.087891-1.464844-.117188-2.373047-.117188-5.507812 0-7.353516 3.574219-7.353516 8.056641v19.072265zm38.11914-3.984375c-1.464843 2.460938-4.335937 4.482422-9.023437 4.482422-5.947266 0-10.019531-3.662109-10.019531-9.287109 0-5.302735 3.691406-8.701172 10.693359-8.730469h8.349609v-3.310547c0-4.30664-2.519531-6.621093-6.884765-6.621093-4.21875 0-6.533203 2.080078-6.884766 5.332031h-4.072265c.351562-5.332031 4.013671-9.052735 11.132812-9.052735 6.386719 0 11.015625 3.544922 11.015625 9.84375v21.328125h-4.189453v-3.984375zm-7.998046.761719c4.570312 0 7.998046-2.871094 7.998046-7.001953v-3.779297h-8.203125c-4.482421 0-6.386718 2.138672-6.386718 5.126953 0 3.808594 3.134765 5.654297 6.591797 5.654297zm24.144531-27.451172v-7.705078h4.30664v7.705078h6.269532v3.66211h-6.269532v18.896484c0 3.779297 1.230469 4.716797 5.126953 4.716797.527344 0 .966797 0 1.40625-.058594v3.544922c-.439453.087891-1.464843.205078-2.490234.205078-7.001953 0-8.349609-2.753906-8.349609-8.671875v-18.632812h-4.189453v-3.66211zm30.267578 31.171875c-7.880859 0-12.626953-5.625-12.626953-14.296875v-3.515625c0-8.115234 4.453125-13.857422 12.421875-13.857422 7.851562 0 12.421875 5.683594 12.421875 14.208985v2.695312h-20.507813v.615235c0 6.240234 3.105469 10.429687 8.4375 10.429687 3.867188 0 6.298828-1.992187 7.265625-4.921875h4.365235c-1.142579 4.921875-5.126953 8.642578-11.777344 8.642578zm-8.291016-18.486328h16.171875v-.08789c0-5.332032-3.222656-9.375-8.085937-9.375-4.921875 0-8.085938 4.072265-8.085938 9.375z" fill="#1a202c"/></g></g></svg>