<svg height="630" viewBox="0 0 1200 630" width="1200" xmlns="http://www.w3.org/2000/svg" xmlns:xlink="http://www.w3.org/1999/xlink"><radialGradient id="a" cx="50%" cy="-50%" gradientTransform="matrix(0 .997341 -1 0 0 -.998671)" r="100.266504%"><stop offset="0" stop-color="#20c6b7"/><stop offset="1" stop-color="#4d9abf"/></radialGradient><g fill="none" fill-rule="evenodd"><path d="m0 0h1200v630h-1200z" fill="#fff"/><path d="m101.150586 48.5633737-.051016-.0218984c-.029152-.0109491-.058304-.0218982-.083812-.0474463-.084741-.0911628-.122434-.2165557-.102033-.3394235l2.816824-17.2485598 13.209557 13.2338716-13.737939 5.8541452c-.038179.0154196-.079098.0228714-.120253.0219826h-.05466c-.01822-.0110335-.03644-.0256323-.07288-.0621295-.511259-.5701388-1.122648-1.0414599-1.803788-1.3905419zm19.160234-1.0511183 14.124205 14.1463009c2.933433 2.9416713 4.401971 4.4088574 4.937641 6.1096252.080169.2518305.145761.5036608.196777.7627906l-33.754517-14.3178373c-.018138-.0075017-.03636-.0148016-.05466-.0218984-.134829-.0547457-.291521-.1167911-.291521-.2554802 0-.1386892.160336-.204384.295165-.2591299l.043728-.0182485zm18.682869 25.5589642c-.728804 1.3722932-2.14997 2.7956827-4.55502 5.2081452l-15.924348 15.945611-20.5959768-4.2957161-.1093206-.0218984c-.1822005-.0291978-.3753334-.0620451-.3753334-.2262824-.158118-1.7201448-1.0226206-3.2971906-2.3868302-4.3541117-.0838125-.0839435-.0619483-.2153333-.0364403-.335774 0-.0182484 0-.0364972.007288-.0510959l3.8735888-23.8180495.0145759-.0802938c.0218642-.1824858.0546603-.3941693.2186409-.3941693 1.6768437-.2089267 3.1997497-1.0833377 4.2270587-2.4270613.032796-.0364972.05466-.0766441.098388-.0985425.116608-.0547457.255081 0 .375333.0510962l35.164751 14.8981425zm-24.141604 24.8217212-26.1858964 26.2268622 4.4821393-27.5918561.0072878-.0364972c.003644-.0364972.0109321-.0729942.0218642-.1058417.0364401-.0875932.1311846-.1240904.2222849-.1605876l.0437282-.0182485c.9813909-.419372 1.8493786-1.0660651 2.5325909-1.8869035.0874564-.102192.1931329-.2007343.3279615-.218983.0349937-.0057214.0706825-.0057214.1056763 0l18.4387193 3.7957053zm-31.7284443 31.7780812-2.9516527 2.95627-32.63216-47.23463c-.0118003-.017277-.0239496-.0343125-.0364401-.051096-.0510162-.0693445-.1056765-.1386892-.0947444-.218983 0-.0583953.0400841-.1094913.0801683-.1532879l.0364401-.0474463c.0983885-.1459888.1822008-.2919774.2733012-.4489153l.0728804-.1277401.0109319-.0109491c.0510163-.0875932.0983885-.1715367.1858448-.218983.0765245-.0364972.1822008-.0218982.2660132-.0036497l36.1522792 7.46732c.101086.015744.1964442.0572145.2769452.1204404.0473722.0474463.0583043.0985426.0692362.1569379.511185 1.9371245 1.8970137 3.5235994 3.7460483 4.2884167.1020322.0510963.058304.1642373.0109318.284678-.023635.0527862-.0419461.107805-.05466.1642373-.455502 2.7737843-4.3618869 26.6356301-5.4113634 33.0773801zm-6.1656743 6.17167c-2.1754774 2.156983-3.458171 3.299344-4.9084892 3.759208-1.4299987.452894-2.9646841.452894-4.3946829 0-1.6981112-.540158-3.1666496-2.007344-6.1000821-4.949015l-32.7706326-32.8219 8.5597926-13.295917c.0400841-.065695.0801685-.1240903.1457607-.1715366.0911004-.0656951.2222849-.0364972.3316055 0 1.9647091.5936678 4.074168.486611 5.9688976-.3029265.0983884-.0363296.1967767-.0620453.2733012.0072994.0382665.0349841.0724918.0741595.1020325.116791l32.7924967 47.6616467zm-51.3332485-37.1760113-7.5176042-7.529365 14.8457196-6.343207c.0379471-.0165729.078856-.025264.1202527-.0255481.1238965 0 .1967767.1240904.2623691.2372317.1491931.2298896.3072191.4539066.4737219.6715477l.0473722.0583954c.0437282.0620453.0145761.1240904-.029152.182486l-8.1990353 12.7484593zm-10.8445905-10.861556-9.51088079-9.5257599c-1.61794293-1.6204741-2.79131598-2.7956828-3.60757547-3.8066542l28.91890816 6.0074333c.0363271.0067431.0727734.012827.1093203.0182485.178557.0291978.3753337.0620453.3753337.229932 0 .182486-.2149969.2664295-.3971977.335774l-.0838123.0364972zm-14.7801274-18.2303337c.03295705-.6136288.14314916-1.2206337.32796142-1.8066095.5393143-1.7007678 2.00420858-3.1679539 4.94128519-6.1096252l12.17101219-12.1900529c5.6038881 8.145728 11.2229699 16.2809601 16.8572165 24.4056537.0983884.1313898.2077088.2773783.0947444.3868699-.5320265.5876043-1.0640527 1.2299544-1.4393864 1.9270502-.0407178.0896041-.1033936.1674435-.1822008.2262824-.0473719.0291978-.0983882.0182487-.1530485.0072997h-.007288l-32.610296-6.850518zm20.6980088-23.3691341 16.3579863-16.3908764c1.5414186.6751974 7.1422706 3.0438633 12.145504 5.1606989 3.7897762 1.6058753 7.2443031 3.0657617 8.3302198 3.5402249.1093206.0437966.2077088.0875932.255081.1970848.0291523.0656947.0145762.1496382 0 .2189829-.5262291 2.4034118.1900075 4.9107327 1.9058202 6.6716816.1093206.1094916 0 .2664293-.0947444.4014688l-.0510163.0766441-16.6167111 25.7779472c-.0437282.0729941-.0838123.1350394-.1566928.1824857-.0874564.0547457-.2113528.0291978-.3133853.0036497-.6462846-.1695882-1.3106747-.2602728-1.9787005-.2700789-.5976186 0-1.2462532.1094913-1.9021761.229932h-.0036441c-.0728802.0109491-.1384726.0255481-.1967769-.0182485-.0643956-.0527086-.1197821-.1155782-.1639806-.1861357l-17.5204272-25.5954611zm19.6703963-19.7011692 21.1863071-21.21945142c2.9334325-2.93802173 4.4019709-4.40885743 6.1000821-4.94536577 1.4299988-.45289401 2.9646842-.45289401 4.3946829 0 1.6981112.53650834 3.1666496 2.00734404 6.1000822 4.94536577l4.5914598 4.59864268-15.0680047 23.37278414c-.0372758.0680419-.0881319.1276738-.1494047.1751864-.0911004.062045-.2186409.0364969-.3279615 0-2.411809-.7330599-5.0294103-.2278373-6.99651 1.350395-.0983884.102192-.2441491.0437966-.3680456-.0109493-1.9677683-.8576832-17.2726341-7.3359299-19.4626876-8.2666075zm45.5720598-13.4163577 13.9128516 13.9346172-3.3524944 20.7960843v.0547457c-.0029932.0473954-.0128122.0941083-.0291521.1386892-.0364401.0729944-.1093206.0875932-.1822008.1094916-.7167811.2174555-1.3918669.5542927-1.9969206.9963726-.0260121.0185666-.050394.0393238-.0728802.0620451-.0400842.0437966-.0801683.0839435-.1457607.0914414-.0533851.0014535-.1065873-.0072208-.1566925-.0257464l-21.2008832-9.0220992-.0400841-.0182485c-.1348286-.0547457-.2951652-.1204407-.2951652-.2591299-.1246135-1.1832954-.5104813-2.3240095-1.1296448-3.3394906-.1020325-.1678867-.2149971-.3430731-.1275408-.5146098zm-14.3282695 31.4094597 19.8744612 8.4308448c.1093205.051096.229573.0985422.2769452.2116836.0189647.068044.0189647.1399898 0 .2080338-.0583043.2919774-.1093204.6241015-.1093204.9598755v.5584066c0 .1386892-.1421166.1970846-.2733011.2518303l-.0400842.014599c-3.1484296 1.3467454-44.2019097 18.8799829-44.2638581 18.8799829-.0619481 0-.1275405 0-.1894889-.062045-.1093203-.1094916 0-.2627796.0983885-.4014688.0173946-.0240564.0344021-.0483909.0510163-.0729944l16.3324781-25.3290321.029152-.0437966c.0947444-.153288.204065-.3248247.3789777-.3248247l.1639806.0255482c.3716897.0510959.6996512.0985422 1.0312564.0985422 2.4779308 0 4.7736606-1.2080562 6.1583865-3.2737956.0329919-.0551632.0748541-.1044898.1238967-.1459888.0983882-.0729941.2441489-.0364972.3571135.0145991zm-22.7605217 33.5226452 44.7485121-19.113565s.0655922 0 .1275405.0620453c.2441489.2445309.4518579.4087682.6522787.5620564l.0983884.0620451c.0911004.0510959.1822008.1094916.1894889.2043842 0 .0364972 0 .0583953-.0072881.0912428l-3.8335044 23.5844675-.0145761.0948928c-.025508.1824858-.0510163.3905197-.2222849.3905197-2.0749246.1402709-3.9470828 1.2970071-5.0032334 3.0913098l-.0182202.0291976c-.0510162.0839435-.0983885.1642373-.1822008.2080338-.0765242.0364973-.1749127.0218982-.255081.0036497l-35.6858451-7.3724271c-.0364402-.0072994-.5538905-1.8942029-.5939746-1.8978526z" fill="url(#a)" fill-rule="nonzero" transform="translate(875 198)"/><path d="m80 21.9951429c0 6.4559285-2.91 12.2657857-7.54 16.2905714h.04l-25 23.9285714c-2.5 2.3928572-5 4.7857143-7.5 4.7857143s-5-2.3928571-7.5-4.7857143l-24.96-23.9285714c-4.63-4.0247857-7.54-9.8298572-7.54-16.2905714 0-12.1461429 10.29-21.9951429 22.98-21.9951429 6.745 0 12.815 2.78528571 17.02 7.21685714 4.205-4.43157143 10.27-7.21685714 17.02-7.21685714 12.69 0 22.98 9.849 22.98 21.9951429z" fill="#e53e3e" fill-rule="nonzero" transform="translate(560 282)"/><g transform="translate(170 198)"><path d="m.66700151 116.871601h44.39898899c.2540076-1.686243.7968185-3.315982 1.6045468-4.817502l41.6399511-73.2808701-21.6613842-38.1091857zm143.70479249 0h20.663434l-54.241515-95.4296308-9.783822 17.3312587 41.56168 73.2808701c.885765 1.483893 1.495682 3.116066 1.800223 4.817502zm-49.7409562-66.9750332-38.0590716 66.9750332h76.0985758z" fill-rule="nonzero" transform="translate(11.079137 11.079137)"/><path d="m56.6800188 132.347782c-.1382046-.242087-.2612895-.492342-.3685616-.749356-.7440368-1.705008-.973126-3.587104-.6595312-5.418419h-44.0140058l65.4099726-114.0173842 21.4735586 37.3909385 6.2267496-10.9136963-18.7190458-32.66423199c-.5237453-.94149844-3.6856153-5.97563301-9.1364463-5.97563301-2.4635427 0-5.9939744 1.05678396-8.8648745 6.05249003l-66.26348361 115.40080997c-.56254127.999141-3.29765578 6.244633-.58193926 10.894482 1.24147043 2.113568 3.87959507 4.630635 9.69898767 4.630635h55.497607c-5.7805964 0-8.457517-2.478639-9.6989874-4.630635z" fill="#00c58e"/><path d="m186.320893 124.174369-55.84745-96.8536442c-.576977-1.0184812-3.800094-6.1696457-9.410703-6.1696457-2.526764 0-6.147796 1.0576536-9.092371 6.1500596l-7.222168 12.4568084 6.426337 11.1249485 9.947889-17.3337666 55.250577 95.44344h-21.009942c.268845 1.577815.118047 3.197279-.437707 4.700682-.117045.331919-.263511.653064-.437707.959723l-.179062.352551c-2.825201 4.739855-8.933205 4.994475-10.126951 4.994475h32.867826c1.213642 0 7.301751-.25462 10.126951-4.994475 1.253434-2.154479 2.148744-5.777922-.855519-10.831156z" fill="#000"/><path d="m155.956241 133.017534.176328-.350687c.171537-.305039.315767-.624485.431025-.95465.547269-1.495458.695764-3.106362.431024-4.675838-.30492-1.692688-.915597-3.316469-1.802465-4.792733l-41.67222-72.9040965-6.367406-11.0661482-6.328221 11.0661482-41.6526278 72.9040965c-.8087345 1.493801-1.3522215 3.115161-1.6065453 4.792733-.3352278 1.851271-.1242845 3.759463.6073525 5.494109.1083451.260604.2326612.514355.3722482.759824 1.2538893 2.143092 3.9184033 4.69532 9.7960086 4.69532h77.5843858c1.234298 0 7.249047-.253275 10.031113-4.968078zm-48.803714-72.611856 38.086881 66.630681h-76.1541694z" fill="#2f495e" fill-rule="nonzero"/></g><g fill="#000" fill-rule="nonzero"><path d="m840.265625 434h-5.625v-53.28125h5.820313l28.046874 43.28125h.15625v-43.28125h5.625v53.28125h-5.820312l-28.085938-43.28125h-.117187zm63.364583.664062c-10.507812 0-16.835937-7.5-16.835937-19.0625v-4.6875c0-10.820312 5.9375-18.476562 16.5625-18.476562 10.46875 0 16.5625 7.578125 16.5625 18.945312v3.59375h-27.34375v.820313c0 8.320313 4.140625 13.90625 11.25 13.90625 5.15625 0 8.398437-2.65625 9.6875-6.5625h5.820312c-1.523437 6.5625-6.835937 11.523437-15.703125 11.523437zm-11.054687-24.648437h21.5625v-.117187c0-7.109376-4.296875-12.5-10.78125-12.5-6.5625 0-10.78125 5.429687-10.78125 12.5zm41.606771-16.914063v-10.273437h5.742187v10.273437h8.359375v4.882813h-8.359375v25.195313c0 5.039062 1.640625 6.289062 6.835938 6.289062.703125 0 1.289062 0 1.875-.078125v4.726563c-.585938.117187-1.953125.273437-3.320313.273437-9.335937 0-11.132812-3.671875-11.132812-11.5625v-24.84375h-5.585938v-4.882813zm26.177083 40.898438v-56.132812h5.742187v56.132812zm20.083333 0v-40.898438h5.742188v40.898438zm-1.015625-50.859375c0-2.148437 1.757813-3.90625 3.867188-3.90625 2.1875 0 3.945312 1.757813 3.945312 3.90625 0 2.1875-1.757812 3.945313-3.945312 3.945313-2.109375 0-3.867188-1.757813-3.867188-3.945313zm23.286457 50.859375v-36.015625h-5.585936v-4.882813h5.585936v-4.257812c0-7.734375 3.82813-11.289062 11.875-11.289062 1.21094 0 2.14844.117187 2.85156.234374v4.882813c-.625-.078125-1.21093-.15625-2.1875-.15625-4.57031 0-6.79687 1.523437-6.79687 6.71875v3.867187h8.35937v4.882813h-8.35937v36.015625zm57.46615-40.898438-14.76563 41.289063-1.17187 3.046875c-2.14844 5.898438-4.88281 11.367188-12.85157 11.367188-1.36718 0-2.89062-.15625-3.90624-.3125v-4.882813c.66406.117187 2.10937.234375 3.00781.234375 4.80469 0 6.875-2.460938 8.08593-6.679688l.78126-2.5-15.27344-41.5625h6.40625l11.67969 34.21875h.19531l11.67969-34.21875z"/><path d="m192.265625 434h-5.625v-53.28125h5.820313l28.046874 43.28125h.15625v-43.28125h5.625v53.28125h-5.820312l-28.085938-43.28125h-.117187zm80.044271-40.898438v40.898438h-5.742188v-5.585938h-.234375c-1.445312 3.320313-5.351562 6.25-11.992187 6.25-8.4375 0-14.492188-4.804687-14.492188-14.140624v-27.421876h5.742188v25.78125c0 7.734376 4.492187 10.507813 10.273437 10.507813 6.40625 0 10.664063-4.21875 10.664063-10.9375v-25.351563zm37.309896 40.898438-11.015625-16.015625h-.039063l-10.898437 16.015625h-6.640625l14.257812-20.507812-13.828125-20.390626h6.953125l10.585938 16.015626 10.585937-16.015626h6.601563l-13.867188 20.390626 14.257813 20.507812zm19.809896-40.898438v-10.273437h5.742187v10.273437h8.359375v4.882813h-8.359375v25.195313c0 5.039062 1.640625 6.289062 6.835937 6.289062.703126 0 1.289063 0 1.875-.078125v4.726563c-.585937.117187-1.953124.273437-3.320312.273437-9.335938 0-11.132812-3.671875-11.132812-11.5625v-24.84375h-5.585938v-4.882813z"/></g></g></svg>