<svg height="630" viewBox="0 0 1200 630" width="1200" xmlns="http://www.w3.org/2000/svg"><g fill="none" fill-rule="evenodd"><path d="m0 0h1200v630h-1200z" fill="#fff"/><rect fill="#fff" height="182" rx="19" stroke="#000" stroke-width="8" width="181" x="509" y="224"/><g fill-rule="nonzero" transform="translate(552 262)"><path d="m89.9157112 23.710875c-2.3298571-3.133625-5.5795714-6.803875-9.1448571-10.32175s-7.285-6.724375-10.4608571-9.02325c-5.4117143-3.915375-8.037-4.365875-9.541-4.365875h-52.03571433c-4.62614285 0-8.39285714 3.716625-8.39285714 8.28125v89.4375c0 4.564625 3.76671429 8.28125 8.39285714 8.28125h77.21428573c4.6261428 0 8.3928571-3.716625 8.3928571-8.28125v-64.59375c0-1.484-.4565714-4.074375-4.4247143-9.414125zm-13.8985714-5.63125c3.2228572 3.18 5.7474286 6.042 7.614 8.420375h-16.1545714v-15.933125c2.4104286 1.84175 5.3177143 4.33275 8.5338571 7.51275zm11.609 79.639125c0 .901-.7654286 1.65625-1.6785714 1.65625h-77.21428573c-.90642857 0-1.67857142-.75525-1.67857142-1.65625v-89.4375c0-.894375.77214285-1.65625 1.67857142-1.65625h52.03571433v23.1875c0 1.8285 1.504 3.3125 3.3571428 3.3125h23.5z" fill="#00c58e"/><g fill="#000"><path d="m20.3404255 7h13v7h-13z"/><path d="m34.3404255 12h13v7h-13z"/><path d="m20.3404255 19h13v7h-13z"/><path d="m34.3404255 27h13v7h-13z"/><path d="m20.3404255 33h13v7h-13z"/><path d="m34.3404255 39h13v7h-13z"/><path d="m20.3404255 46h13v7h-13z"/><path d="m34.3404255 53h13v7h-13z"/><path d="m19.3404255 88.9c0 2.8016 2.2815 5.1 5.0625 5.1h16.875c2.781 0 5.0625-2.2984 5.0625-5.1v-17c0-2.8016-2.2815-5.1-5.0625-5.1h-8.4375v-6.8h-13.5zm20.25-8.5v6.8h-13.5v-6.8z"/></g></g><g transform="translate(97 250)"><path d="m.61935855 108.52363h41.22763255c.2358642-1.565797.739903-3.079126 1.4899364-4.473396l38.6656688-68.0465214-20.1141424-35.38710106zm133.44016445 0h19.187475l-50.367121-88.6132291-9.0849786 16.0933117 38.5929886 68.0465214c.822497 1.377901 1.388848 2.893491 1.671636 4.473396zm-46.1880307-62.1911028-35.3405665 62.1911028h70.6629632z" fill-rule="nonzero" transform="translate(10.28777 10.28777)"/><path d="m52.631446 122.894369c-.1283328-.224795-.2426259-.457175-.3422358-.695831-.6908913-1.583221-.903617-3.330881-.6124218-5.031389h-40.8701482l60.7378317-105.873285 19.939733 34.7201572 5.7819822-10.1341466-17.3819716-30.33107252c-.4863349-.87424855-3.422357-5.54880208-8.483843-5.54880208-2.2875754 0-5.5658333.98129939-8.2316692 5.62016931l-61.53037756 107.15789469c-.52235976.927774-3.06210895 5.798588-.54037217 10.116305 1.15279396 1.962599 3.60248113 4.299876 9.00620283 4.299876h51.5334923c-5.3676968 0-7.8534088-2.301594-9.0062027-4.299876z" fill="#00c58e"/><path d="m173.012258 115.304771-51.858346-89.9355265c-.535765-.9457325-3.528659-5.7289567-8.738511-5.7289567-2.34628 0-5.708667.9821069-8.442916 5.7107695l-6.7062979 11.5670365 5.9673119 10.3303092 9.237326-16.0956404 51.304107 88.6260514h-19.509231c.249641 1.465114.109615 2.968902-.406443 4.364919-.108684.308211-.244689.606417-.406442.891171l-.166272.327369c-2.623401 4.401294-8.295119 4.637727-9.403598 4.637727h30.520125c1.126953 0 6.780197-.236433 9.403597-4.637727 1.163903-2.000588 1.995263-5.365213-.79441-10.057502z" fill="#000"/><path d="m144.81651 123.516282.163733-.325639c.159284-.283249.293212-.579879.400237-.88646.508179-1.388639.646067-2.884479.400237-4.341849-.283141-1.571783-.850197-3.079579-1.673718-4.450396l-38.695633-67.6966606-5.9125906-10.2757091-5.8762057 10.2757091-38.6774399 67.6966606c-.7509678 1.387101-1.2556343 2.892649-1.4917921 4.450396-.3112829 1.719036-.115407 3.490929.5639702 5.101672.1006061.24199.2160425.477615.345659.70555 1.1643258 1.990015 3.6385174 4.35994 9.0962937 4.35994h72.0426444c1.146133 0 6.731257-.235183 9.314605-4.613214zm-45.3177346-67.4252953 35.3663896 61.8713473h-70.7145863z" fill="#2f495e" fill-rule="nonzero"/></g><g fill-rule="nonzero" transform="translate(928 250)"><path d="m137.432624 16.25h-8.07819v-8.125c0-4.46875-3.635185-8.125-8.078189-8.125h-113.09465028c-4.44300412 0-8.0781893 3.65625-8.0781893 8.125v97.5c0 4.46875 3.63518518 8.125 8.0781893 8.125h8.07818928v8.125c0 4.46875 3.6351852 8.125 8.0781893 8.125h113.0946507c4.443004 0 8.078189-3.65625 8.078189-8.125v-97.5c0-4.46875-3.635185-8.125-8.078189-8.125zm-121.17284 8.125v81.25h-8.0620329c-.00807819-.008125-.00807819-.008125-.01615638-.01625v-97.4675l.01615638-.01625h113.0623379c.008078.008125.008078.008125.016156.01625v8.10875h-96.9382717c-4.4430041 0-8.0781893 3.65625-8.0781893 8.125zm121.17284 97.48375c-.008079.008125-.008079.008125-.016157.01625h-113.0623373c-.0080782-.008125-.0080782-.008125-.0161564-.01625v-97.4675c.0080782-.008125.0080782-.008125.0161564-.01625h113.0623373c.008078.008125.008078.008125.016157.01625z" fill="#000"/><path d="m121.436739 44.7777778c0 6.6444444-5.392593 12.037037-12.037037 12.037037-6.644445 0-12.0370373-5.3925926-12.0370373-12.037037 0-6.6444445 5.3925923-12.0370371 12.0370373-12.0370371 6.644444 0 12.037037 5.3925926 12.037037 12.0370371z" fill="#000"/><path d="m130.103405 113.62963h-97.2592588v-16.3703707l28.3672839-49.1111112 32.4197531 40.925926h8.1049378l28.367284-24.5555556z" fill="#00c58e"/></g><g stroke-width="7"><g transform="translate(291.25 299)"><path d="m217.29029 16h-216.5" stroke="#1a202c" stroke-dasharray="28 18" stroke-linecap="square" transform="matrix(-1 0 0 1 218 0)"/><circle cx="216.75" cy="16" fill="#fff" r="16" stroke="#000"/></g><path d="m906.5 315h-216.5" stroke="#1a202c" stroke-dasharray="28 18" stroke-linecap="square"/><circle cx="690" cy="315" fill="#fff" r="16" stroke="#000"/></g></g></svg>