<svg height="630" viewBox="0 0 1200 630" width="1200" xmlns="http://www.w3.org/2000/svg"><g fill="none" fill-rule="evenodd"><path d="m0 0h1200v630h-1200z" fill="#fff"/><g fill="#1a202c" fill-rule="nonzero" transform="translate(475 121)"><path d="m243.34375 145.46875c0-7.870625-4.302812-14.8225-10.84125-18.956875 2.02125-3.414688 3.185-7.41125 3.185-11.668125 0-12.67875-10.29-22.96875-22.96875-22.96875h-44.926875c5.374687-19.355 8.085-39.38375 8.085-59.810625 0-17.6859375-14.378438-32.064375-32.064375-32.064375s-32.064375 14.3784375-32.064375 32.064375c0 24.8828125-9.264062 44.008125-27.531875 56.870625-5.0225 3.5371875-10.7034375 6.5690625-16.96625 9.1109375v-21.4834375h-61.25v153.125h61.25v-15.0675c14.3325.934063 21.284375 4.5325 28.0371875 8.008437 6.7221875 3.475938 13.6740625 7.059063 25.5565625 7.059063h76.5625c12.67875 0 22.96875-10.29 22.96875-22.96875 0-2.985938-.581875-5.849375-1.623125-8.467813 9.754063-2.649062 16.935625-11.560937 16.935625-22.157187 0-4.256875-1.16375-8.238125-3.185-11.668125 6.538438-4.134375 10.84125-11.08625 10.84125-18.956875zm-214.375 68.90625c-4.22625 0-7.65625-3.43-7.65625-7.65625s3.43-7.65625 7.65625-7.65625 7.65625 3.43 7.65625 7.65625-3.43 7.65625-7.65625 7.65625zm189.492188-61.25h-13.398438v15.3125h7.65625c4.22625 0 7.65625 3.43 7.65625 7.65625s-3.43 7.65625-7.65625 7.65625h-15.3125v15.3125c4.22625 0 7.65625 3.43 7.65625 7.65625s-3.43 7.65625-7.65625 7.65625h-76.5625c-8.161563 0-12.510312-2.250937-18.528125-5.359375-7.595-3.92-16.84375-8.6975-35.065625-9.73875v-81.875937c10.2746875-3.445313 19.4775-7.993125 27.44-13.5975 23.060625-16.2312505 35.249375-41.0375005 35.249375-71.739063 0-7.65625 6.232187-13.873125 13.873125-13.873125s13.873125 6.2321875 13.873125 13.873125c0 20.488125-2.970625 40.5321875-8.850625 59.810625-1.485312 5.5125-2.894062 10.96375-3.828125 15.3125h67.711875c4.22625 0 7.65625 3.43 7.65625 7.65625s-3.43 7.65625-7.65625 7.65625h-7.65625v15.3125h13.398438c5.190937 0 9.570312 3.506563 9.570312 7.65625 0 4.149688-4.379375 7.65625-9.570312 7.65625z"/><path d="m23.5031744 342.333017c-4.450668 0-8.383104-.621576-11.7973152-1.866756-3.4142064-1.247206-6.6759984-3.265812-9.7853664-6.059875-1.280328-1.093328-1.920492-2.338508-1.920492-3.735538 0-1.093327.4267752-2.079348 1.280328-2.962109.8535504-.880737 1.8595248-1.320093 3.017916-1.320093 1.0364568 0 1.9204944.334072 2.6521104 1.002218 2.4387192 2.247396 4.9526352 3.90156 7.5458088 4.966543 2.5911408 1.06296 5.531832 1.593427 8.824104 1.593427 3.8409864 0 7.086516-.880737 9.7386264-2.64221 2.6541408-1.761475 3.9791784-3.978502 3.9791784-6.651082-.0609672-3.158503-1.3860048-5.602293-3.9791784-7.335422-2.5911408-1.731103-6.537804-3.172678-11.8420224-4.326744-6.279708-1.275552-11.1104064-3.371095-14.4961632-6.286639-3.3837264-2.915542-5.074572-6.954783-5.074572-12.117723 0-3.583687.9450048-6.725992 2.835012-9.428942 1.8900096-2.704975 4.5116352-4.784323 7.8648768-6.242095 3.3532416-1.45777 7.1332584-2.186657 11.3400504-2.186657 3.7800192 0 7.3466472.607404 10.6998888 1.822214 3.3532416 1.214808 6.0663192 2.824431 8.1392328 4.828868 1.4022624 1.214808 2.103396 2.520729 2.103396 3.917757 0 1.09333-.4105176 2.065179-1.233588 2.915544-.8250984.850366-1.8148128 1.27555-2.9732064 1.27555-.8535528 0-1.554684-.242964-2.1033984-.728887-1.5851664-1.579251-3.7800168-2.915542-6.584544-4.008869-2.8045296-1.09333-5.4871224-1.639995-8.0477808-1.639995-4.0848552 0-7.3303872.834171-9.7406568 2.506558-2.4082368 1.670364-3.61134 3.871193-3.61134 6.604514 0 2.976281 1.2031032 5.254049 3.6133728 6.833302 2.4082368 1.57925 5.989092 2.915542 10.7445984 4.008869 4.755504 1.032588 8.6412 2.247396 11.6611488 3.644426 3.0179184 1.397033 5.348928 3.340728 6.9950664 5.831086 1.646136 2.490357 2.469204 5.739972 2.469204 9.748843 0 3.522946-.9897144 6.651079-2.9732088 9.384401-1.9814592 2.733321-4.6782792 4.859237-8.092488 6.377748-3.4142088 1.518513-7.1637432 2.277768-11.2485984 2.277768zm78.1000346-24.782107c0 4.737756-1.066939 8.989586-3.2008202 12.755496-2.1338808 3.765907-5.0440872 6.71182-8.7346848 8.837738-3.6885648 2.125915-7.7571648 3.188873-12.2078304 3.188873-4.450668 0-8.5192656-1.062958-12.2078304-3.188873-3.6905976-2.125918-6.600804-5.071831-8.7346872-8.837738-2.1338784-3.76591-3.20082-8.01774-3.20082-12.755496s1.0669416-9.019959 3.20082-12.846608c2.1338832-3.826648 5.0440896-6.802932 8.7346872-8.928847 3.6885648-2.125917 7.7571624-3.188875 12.2078304-3.188875 4.4506656 0 8.5192656 1.062958 12.2078304 3.188875 3.6905976 2.125915 6.600804 5.102199 8.7346848 8.928847 2.1338812 3.826649 3.2008202 8.108852 3.2008202 12.846608zm-8.6879426 0c0-3.279984-.6848736-6.2097-2.0566536-8.793195-1.3738128-2.581469-3.2313072-4.58388-5.5785744-6.013305-2.3493024-1.4274-4.954668-2.140088-7.8201648-2.140088s-5.4708648.712688-7.8201648 2.142113c-2.3472696 1.4274-4.2067944 3.429811-5.5785744 6.013306-1.37178 2.581469-2.0566536 5.511185-2.0566536 8.791169 0 3.219244.6848736 6.104414 2.0566536 8.655516 1.3738128 2.551096 3.2313048 4.539336 5.5785744 5.966736 2.3493 1.429425 4.954668 2.142115 7.8201648 2.142115s5.4708624-.71269 7.818132-2.142115c2.3493-1.4274 4.2067944-3.41564 5.5785744-5.966736 1.3738128-2.551102 2.0586864-5.436272 2.0586864-8.655516zm39.5987326-24.96433c4.816474 0 8.824104.759257 12.026957 2.277768 3.200822 1.518511 4.800216 3.462206 4.800216 5.831083 0 1.032588-.335323 1.95787-1.005972 2.779889-.670649.819996-1.524202 1.228982-2.560656 1.228982-.792586 0-1.416492-.12148-1.873752-.364442-.459293-.242962-1.083199-.637776-1.875782-1.184441-.365808-.36444-.945005-.789624-1.737591-1.275549-.731613-.364443-1.76807-.668146-3.109368-.911108-1.341295-.242961-2.560656-.36444-3.65808-.36444-3.170337 0-5.974867.728885-8.413589 2.186657-2.438721 1.45777-4.328728 3.476379-5.670026 6.059871-1.341295 2.581471-2.011944 5.450445-2.011944 8.608948 0 3.219245.654389 6.104417 1.967234 8.655516 1.310813 2.5511 3.15408 4.555534 5.531832 6.013306 2.377755 1.45777 5.09083 2.186657 8.139233 2.186657 3.170335 0 5.730991-.485926 7.681971-1.457772.426775-.242962 1.005972-.637774 1.737588-1.184439.609679-.485925 1.142133-.850365 1.599393-1.093327.459293-.242961 1.022232-.364445 1.692881-.364445 1.219358 0 2.17859.378617 2.881754 1.139897.701132.759255 1.050682 1.745275 1.050682 2.960086 0 1.275547-.80681 2.534901-2.422464 3.780079-1.617682 1.247206-3.780017 2.263596-6.495127 3.053222-2.713075.789624-5.623282 1.184439-8.73265 1.184439-4.633572 0-8.718429-1.077132-12.254575-3.233417-3.536143-2.158313-6.263448-5.13257-8.18394-8.928847-1.922525-3.798305-2.881757-8.03394-2.881757-12.710955 0-4.677014 1.005975-8.912649 3.017919-12.710954 2.011944-3.796277 4.816473-6.770537 8.413588-8.928845 3.597113-2.156287 7.712453-3.233419 12.346025-3.233419zm34.385964 44.462016c0 1.21481-.410517 2.247398-1.235621 3.097764-.823068.850366-1.873749 1.27555-3.154077 1.27555-1.219361 0-2.239558-.425184-3.062626-1.27555-.81335-.824966-1.258759-1.941629-1.235618-3.097764v-39.450929c0-1.214808.410515-2.247396 1.235618-3.097761.793635-.837893 1.906548-1.30141 3.062626-1.27555 1.280328 0 2.331009.425182 3.156113 1.27555.823068.850365 1.233585 1.882953 1.233585 3.097761zm-4.389698-49.837546c-1.768073 0-3.032143-.317875-3.796275-.955651-.7621-.639799-1.142136-1.656189-1.142136-3.05322v-1.457772c0-1.457769.41052-2.490357 1.235619-3.097761.823068-.607407 2.087138-.911108 3.794244-.911108 1.707105 0 2.940691.317876 3.702792.957675.764133.637776 1.144166 1.654166 1.144166 3.051194v1.457772c0 1.457772-.396293 2.49036-1.188876 3.097764-.792585.607404-2.042429.911107-3.749534.911107zm55.785741 5.831084c1.280328 0 2.33101.408986 3.156111 1.231005.823068.819999 1.233585 1.897128 1.233585 3.233419v39.542038c0 1.21481-.410517 2.247398-1.235618 3.097764-.823068.850366-1.87375 1.27555-3.154078 1.27555-1.28033 0-2.316784-.408987-3.10937-1.228983-.792583-.822021-1.188876-1.868781-1.188876-3.144331v-2.368877c-1.585169 2.125915-3.749534 3.931932-6.493094 5.422097-2.719016 1.481587-5.77177 2.249417-8.870847 2.231518-4.145825 0-7.909586-1.063275-11.295343-3.18919-3.383724-2.125918-6.035834-5.086003-7.956326-8.88228-1.920492-3.798305-2.879724-8.06431-2.879724-12.802066s.959232-9.00376 2.881756-12.80004c1.920492-3.798302 4.556343-6.758388 7.909584-8.884303 3.353242-2.125917 7.041807-3.188875 11.065695-3.188875 3.231307 0 6.232965.668146 9.009043 2.004434 2.774045 1.336292 4.98312 3.037025 6.629256 5.102201v-2.186657c0-1.275549.396293-2.338507 1.188876-3.188875.792586-.850365 1.82904-1.275549 3.10937-1.275549zm-18.656215 41.273143c2.865497 0 5.409895-.728887 7.635228-2.186657 2.227366-1.457772 3.962923-3.462206 5.214799-6.013306 1.249844-2.551099 1.87375-5.436271 1.87375-8.655516 0-3.158503-.623906-6.013305-1.87375-8.564404-1.251876-2.5511-2.987433-4.569708-5.212766-6.059873-2.227366-1.488142-4.771764-2.231199-7.637261-2.231199s-5.409895.728885-7.637261 2.186657c-2.225332 1.45777-3.962923 3.462204-5.212766 6.013303-1.249843 2.5511-1.87375 5.436274-1.87375 8.655516 0 3.219245.623907 6.104417 1.87375 8.655516 1.251876 2.5511 2.987434 4.555534 5.212766 6.013306 2.227366 1.45777 4.771764 2.186657 7.637261 2.186657zm45.360209 2.733319c0 1.21481-.426778 2.247398-1.280328 3.097764-.853553.850366-1.89001 1.27555-3.10937 1.27555-1.219361 0-2.239558-.425184-3.062626-1.27555-.81335-.824966-1.258757-1.941629-1.235618-3.097764v-58.675282c0-1.21481.426775-2.247398 1.280328-3.097764.853552-.850368 1.890007-1.275549 3.10937-1.275549 1.219358 0 2.239558.425181 3.062626 1.275549.8251.850366 1.235618 1.882954 1.235618 3.097764z"/></g></g></svg>