<svg height="630" viewBox="0 0 1200 630" width="1200" xmlns="http://www.w3.org/2000/svg"><g fill="none" fill-rule="evenodd"><path d="m0 0h1200v630h-1200z" fill="#fff"/><g fill-rule="nonzero" transform="translate(802 230)"><path d="m201.203411 65.0050004c5.38155 0 8.934417 4.303331 7.876394 9.555735l-24.021042 84.8835296c-1.058023 5.265405-6.335076 9.555735-11.716626 9.555735h-137.1511375c-5.3946114 0-10.6586027-4.303331-11.7166257-9.555735l-24.02104215-84.8835296c-1.05802307-5.252404 2.48178249-9.555735 7.87639391-9.555735z" fill="#41b883"/><path d="m183.138647 22.7517501v29.2522502h-156.7441573v-42.25325024c0-5.38241403 4.3888364-9.75075006 9.7965098-9.75075006h42.4515427l6.5310065 13.0010001h88.1685883c5.407674 0 9.79651 4.368336 9.79651 9.75075z" fill="#34495e"/></g><path d="m603.964844 318.283203v33.105469h-8.789063v-33.105469h-30.175781v-8.935547h30.175781v-31.347656h8.789063v31.347656h30.249023v8.935547z" fill="#34495e" fill-rule="nonzero"/><path d="m139.944444 197.837209-26.218186-45.655814-26.2181873 45.655814h-87.31029797l113.52848527-197.69767412 113.528484 197.69767412z" fill="#41b883" transform="matrix(1 0 0 -1 168.069394 413.988372)"/><path d="m94.8383838 118.767442-26.2181868-45.6558141-26.2181869 45.6558141h-41.89890404l68.11709094-118.61627921 68.117091 118.61627921z" fill="#34495e" transform="matrix(1 0 0 -1 213.175455 334.918605)"/></g></svg>