<?xml version="1.0" encoding="UTF-8"?><svg version="1.1" viewBox="0 0 16 16" xmlns="http://www.w3.org/2000/svg" xmlns:xlink="http://www.w3.org/1999/xlink"><path d="M8 16c-4.412 0-8-3.588-8-8 0-4.412 3.587-8 8-8 4.412 0 8 3.587 8 8 0 4.413-3.588 8-8 8v0Zm6.747-6.906c-.234-.075-2.116-.634-4.256-.291 .894 2.456 1.256 4.456 1.328 4.872 1.531-1.037 2.625-2.678 2.928-4.581v0Zm-4.078 5.206c-.103-.6-.497-2.688-1.456-5.181 -.016.006-.031.009-.044.016 -3.856 1.344-5.241 4.016-5.362 4.266 1.159.903 2.616 1.444 4.194 1.444 .947 0 1.85-.194 2.669-.544v0Zm-7.747-1.722c.156-.266 2.031-3.369 5.553-4.509 .088-.028.178-.056.269-.081 -.172-.388-.359-.778-.553-1.159 -3.409 1.022-6.722.978-7.022.975 -.003.069-.003.138-.003.209 0 1.753.666 3.356 1.756 4.566v0Zm-1.609-5.969c.306.003 3.122.016 6.319-.831 -1.131-2.013-2.353-3.706-2.534-3.953 -1.913.903-3.344 2.666-3.784 4.784v0Zm5.087-5.243c.188.253 1.431 1.944 2.55 4 2.431-.909 3.459-2.294 3.581-2.469 -1.206-1.072-2.794-1.722-4.531-1.722 -.55.003-1.088.069-1.6.191v0Zm6.891 2.325c-.144.194-1.291 1.663-3.816 2.694 .159.325.313.656.453.991 .05.119.1.234.147.353 2.275-.284 4.534.172 4.759.219 -.016-1.612-.594-3.094-1.544-4.256v0Z" fill="#000"></path></svg>
