<?xml version="1.0" encoding="UTF-8"?><svg version="1.1" viewBox="0 0 16 16" xmlns="http://www.w3.org/2000/svg" xmlns:xlink="http://www.w3.org/1999/xlink"><path d="M7.5 1c-4.142 0-7.5 3.358-7.5 7.5 0 4.142 3.358 7.5 7.5 7.5 4.142 0 7.5-3.358 7.5-7.5 0-4.142-3.358-7.5-7.5-7.5Zm4.244 10c.134-.632.219-1.303.246-2h1.991c-.052.691-.213 1.361-.479 2h-1.758Zm-8.488-5c-.134.632-.219 1.303-.246 2h-1.991c.052-.691.213-1.361.479-2h1.758Zm7.463 0c.15.64.241 1.31.27 2h-2.989v-2h2.719Zm-2.719-1v-2.927c.228.066.454.178.675.334 .415.293.813.744 1.149 1.304 .233.388.434.819.601 1.289h-2.426Zm-2.824-1.289c.336-.561.734-1.012 1.149-1.304 .222-.156.447-.268.675-.334v2.927h-2.426c.168-.47.369-.901.601-1.289Zm1.824 2.289v2h-2.989c.029-.69.12-1.36.27-2h2.719Zm-5.502 5c-.266-.639-.427-1.309-.479-2h1.991c.028.697.112 1.368.246 2h-1.758Zm2.513-2h2.989v2h-2.719c-.15-.64-.241-1.31-.27-2Zm2.989 3v2.927c-.228-.066-.454-.178-.675-.334 -.415-.293-.813-.744-1.149-1.304 -.233-.388-.434-.819-.602-1.289h2.426Zm2.825 1.289c-.336.561-.734 1.012-1.149 1.304 -.222.156-.447.268-.675.334v-2.927h2.426c-.168.47-.369.901-.602 1.289Zm-1.825-2.289v-2h2.989c-.029.69-.12 1.36-.27 2h-2.719Zm3.99-3c-.028-.697-.112-1.368-.246-2h1.758c.267.639.427 1.309.479 2h-1.991Zm.989-3h-1.498c-.291-.918-.693-1.723-1.177-2.366 .665.318 1.267.744 1.792 1.27 .336.336.631.702.883 1.096Zm-10.075-1.096c.526-.526 1.128-.952 1.792-1.27 -.483.643-.886 1.448-1.177 2.366h-1.498c.252-.394.547-.761.883-1.096Zm-.883 8.096h1.498c.291.918.693 1.723 1.177 2.366 -.665-.318-1.267-.744-1.792-1.27 -.336-.336-.631-.702-.883-1.096Zm10.075 1.096c-.526.526-1.128.952-1.792 1.27 .483-.643.886-1.448 1.177-2.366h1.498c-.252.394-.547.761-.883 1.096Z" fill="#000"></path></svg>
