<?xml version="1.0" encoding="UTF-8"?><svg version="1.1" viewBox="0 0 16 16" xmlns="http://www.w3.org/2000/svg" xmlns:xlink="http://www.w3.org/1999/xlink"><path d="M15.781 14.309v0l-6.829-13.611c-.262-.465-.606-.698-.951-.698 -.345 0-.69.233-.951.698l-6.829 13.611c-.523.93-.078 1.691.989 1.691h13.583c1.067 0 1.512-.761.989-1.691Zm-7.781-.309c-.552 0-1-.448-1-1 0-.552.448-1 1-1 .552 0 1 .448 1 1 0 .552-.448 1-1 1Zm1-4c0 .552-.448 1-1 1 -.552 0-1-.448-1-1v-3c0-.552.448-1 1-1 .552 0 1 .448 1 1v3Z" fill="#000"></path></svg>
